<?xml version="1.0" encoding="utf-8"?>
<!-- Generator: Adobe Illustrator 26.0.1, SVG Export Plug-In . SVG Version: 6.00 Build 0)  -->
<svg version="1.1" id="Layer_1" xmlns="http://www.w3.org/2000/svg" xmlns:xlink="http://www.w3.org/1999/xlink" x="0px" y="0px"
	 viewBox="0 0 396.9 396.9" style="enable-background:new 0 0 396.9 396.9;" xml:space="preserve">
<style type="text/css">
	.st0{fill:#FFFFFF;stroke:#000000;stroke-width:0.5;stroke-miterlimit:10;}
	.st1{enable-background:new    ;}
	.st2{fill:#414042;}
	.st3{fill:#86CDDC;}
	.st4{fill:#FFFFFF;}
</style>
<rect class="st0" width="396.9" height="396.9"/>
<g class="st1">
	<path class="st2" d="M54.1,278.6l-4.2,39.2H34.1l-8.2-73.5h11.2l6.2,58l5.6-58H60l5.8,58.4l6-58.4h10.1l-8.2,73.5H58.3L54.1,278.6z
		"/>
	<path class="st2" d="M87.6,244.3h11.6v73.5H87.6V244.3z"/>
	<path class="st2" d="M122.7,288.5l-3.6,6.7v22.6h-11.6v-73.5h11.6v32l15.1-32h11.6l-16,32.8l16.1,40.8H134L122.7,288.5z"/>
	<path class="st2" d="M151.1,244.3h11.6v73.5h-11.6V244.3z"/>
</g>
<g class="st1">
	<path class="st3" d="M188.4,304.3l8.8-60h10.6l-11.3,73.5h-17.2L168,244.3h11.7L188.4,304.3z"/>
	<path class="st3" d="M213.2,244.3h11.6v73.5h-11.6V244.3z"/>
	<path class="st3" d="M244.7,275.3h15.9v10.5h-15.9v21.5h20v10.5h-31.5v-73.5h31.5v10.5h-20V275.3z"/>
	<path class="st3" d="M297.5,278.6l-4.2,39.2h-15.9l-8.2-73.5h11.2l6.2,58l5.6-58h11.1l5.8,58.4l6-58.4h10.1l-8.2,73.5h-15.3
		L297.5,278.6z"/>
	<path class="st3" d="M346.5,243.4c11.2,0,17,6.7,17,18.5v2.3h-10.9v-3c0-5.3-2.1-7.2-5.8-7.2s-5.8,2-5.8,7.2
		c0,15.1,22.6,18,22.6,39c0,11.8-5.9,18.5-17.2,18.5c-11.3,0-17.2-6.7-17.2-18.5v-4.5h10.9v5.3c0,5.3,2.3,7.1,6,7.1s6-1.9,6-7.1
		c0-15.1-22.6-18-22.6-39C329.5,250.2,335.3,243.4,346.5,243.4z"/>
</g>
<circle class="st3" cx="181.7" cy="135.4" r="31.5"/>
<circle class="st2" cx="181.7" cy="135.4" r="21.4"/>
<circle class="st4" cx="192.3" cy="122.5" r="8.5"/>
<path class="st2" d="M269.4,215.5l-41.2-41.2c8.9-10.6,14.2-24.1,14.2-39c0-33.5-27.2-60.7-60.7-60.7S121,101.8,121,135.3
	s27.2,60.7,60.7,60.7c13.5,0,26.1-4.5,36.2-12l41.5,41.5L269.4,215.5z M135.2,135.4c0-25.6,20.9-46.5,46.5-46.5s46.5,20.9,46.5,46.5
	s-20.9,46.5-46.5,46.5C156,181.9,135.2,161,135.2,135.4z"/>
</svg>
