<?xml version="1.0" encoding="utf-8"?>
<!-- Generator: Adobe Illustrator 26.0.1, SVG Export Plug-In . SVG Version: 6.00 Build 0)  -->
<svg version="1.1" id="Layer_1" xmlns="http://www.w3.org/2000/svg" xmlns:xlink="http://www.w3.org/1999/xlink" x="0px" y="0px"
	 viewBox="0 0 406.6 282.7" style="enable-background:new 0 0 406.6 282.7;" xml:space="preserve">
<style type="text/css">
	.st0{enable-background:new    ;}
	.st1{fill:#414042;}
	.st2{fill:#86CDDC;}
	.st3{fill:#FFFFFF;}
</style>
<g class="st0">
	<path class="st1" d="M59,221.5l-4.2,39.2H39l-8.2-73.5H42l6.2,58l5.6-58h11.1l5.8,58.4l6-58.4h10.1l-8.2,73.5H63.2L59,221.5z"/>
	<path class="st1" d="M92.5,187.2h11.6v73.5H92.5V187.2z"/>
	<path class="st1" d="M127.6,231.4l-3.6,6.7v22.6h-11.6v-73.5H124v32l15.1-32h11.6L134.7,220l16.1,40.8h-11.9L127.6,231.4z"/>
	<path class="st1" d="M156,187.2h11.6v73.5H156V187.2z"/>
</g>
<g class="st0">
	<path class="st2" d="M193.3,247.2l8.8-60h10.6l-11.3,73.5h-17.2l-11.3-73.5h11.7L193.3,247.2z"/>
	<path class="st2" d="M218.1,187.2h11.6v73.5h-11.6V187.2z"/>
	<path class="st2" d="M249.6,218.2h15.9v10.5h-15.9v21.5h20v10.5h-31.5v-73.5h31.5v10.5h-20V218.2z"/>
	<path class="st2" d="M302.4,221.5l-4.2,39.2h-15.9l-8.2-73.5h11.2l6.2,58l5.6-58h11.1l5.8,58.4l6-58.4h10.1l-8.2,73.5h-15.3
		L302.4,221.5z"/>
	<path class="st2" d="M351.4,186.3c11.2,0,17,6.7,17,18.5v2.3h-10.9v-3c0-5.3-2.1-7.2-5.8-7.2s-5.8,2-5.8,7.2
		c0,15.1,22.6,18,22.6,39c0,11.8-5.9,18.5-17.2,18.5c-11.3,0-17.2-6.7-17.2-18.5v-4.5H345v5.3c0,5.3,2.3,7.1,6,7.1s6-1.9,6-7.1
		c0-15.1-22.6-18-22.6-39C334.4,193.1,340.2,186.3,351.4,186.3z"/>
</g>
<circle class="st2" cx="186.6" cy="78.3" r="31.5"/>
<circle class="st1" cx="186.6" cy="78.3" r="21.4"/>
<circle class="st3" cx="197.2" cy="65.4" r="8.5"/>
<path class="st1" d="M274.3,158.4l-41.2-41.2c8.9-10.6,14.2-24.1,14.2-39c0-33.5-27.2-60.7-60.7-60.7s-60.7,27.2-60.7,60.7
	s27.2,60.7,60.7,60.7c13.5,0,26.1-4.5,36.2-12l41.5,41.5L274.3,158.4z M140.1,78.3c0-25.6,20.9-46.5,46.5-46.5s46.5,20.9,46.5,46.5
	s-20.9,46.5-46.5,46.5C160.9,124.8,140.1,103.9,140.1,78.3z"/>
</svg>
