<?xml version="1.0" encoding="utf-8"?>
<!-- Generator: Adobe Illustrator 26.0.1, SVG Export Plug-In . SVG Version: 6.00 Build 0)  -->
<svg version="1.1" id="Layer_1" xmlns="http://www.w3.org/2000/svg" xmlns:xlink="http://www.w3.org/1999/xlink" x="0px" y="0px"
	 viewBox="0 0 406.6 282.7" style="enable-background:new 0 0 406.6 282.7;" xml:space="preserve">
<style type="text/css">
	.st0{fill:#414042;}
	.st1{font-family:'BebasNeueBold';}
	.st2{font-size:105.0282px;}
	.st3{fill:#86CDDC;}
	.st4{fill:#FFFFFF;}
</style>
<text transform="matrix(1 0 0 1 29.2054 260.7001)"><tspan x="0" y="0" class="st0 st1 st2">WIKI</tspan><tspan x="142.5" y="0" class="st3 st1 st2">VIEWS</tspan></text>
<circle class="st3" cx="186.6" cy="78.3" r="31.5"/>
<circle class="st0" cx="186.6" cy="78.3" r="21.4"/>
<circle class="st4" cx="197.2" cy="65.4" r="8.5"/>
<path class="st0" d="M274.3,158.4l-41.2-41.2c8.9-10.6,14.2-24.1,14.2-39c0-33.5-27.2-60.7-60.7-60.7s-60.7,27.2-60.7,60.7
	s27.2,60.7,60.7,60.7c13.5,0,26.1-4.5,36.2-12l41.5,41.5L274.3,158.4z M140.1,78.3c0-25.6,20.9-46.5,46.5-46.5
	c25.6,0,46.5,20.9,46.5,46.5c0,25.6-20.9,46.5-46.5,46.5C160.9,124.8,140.1,103.9,140.1,78.3z"/>
</svg>
